<!-- Generator: Adobe Illustrator 25.0.1, SVG Export Plug-In  -->
<svg version="1.1" xmlns="http://www.w3.org/2000/svg" xmlns:xlink="http://www.w3.org/1999/xlink" x="0px" y="0px"
	 width="504.23px" height="196.35px" viewBox="0 0 504.23 196.35"
	 style="overflow:visible;enable-background:new 0 0 504.23 196.35;" xml:space="preserve">
<style type="text/css">
	.st0{fill:#BA8843;}
</style>
<defs>
</defs>
<g>
	<g>
		<path class="st0" d="M409.85,153.63c-5.51,0-10-4.48-10-9.99V83.77h-14.42v59.87c0,13.46,10.95,24.41,24.42,24.41V153.63z"/>
		<path class="st0" d="M330.78,51.29h-36.17V31.25h-14.42v20.04h-37.22V38.13h-14.42v88.83c0,13.47,10.95,24.42,24.41,24.42h27.23
			v18.48h14.42v-18.48h8.01v0.03h18.17v-0.03c13.47,0,24.42-10.95,24.42-24.42V38.13h-14.42V51.29z M252.96,136.96
			c-5.51,0-9.99-4.48-9.99-10V65.72h37.22v71.24H252.96z M320.79,136.96h-26.17V65.72h36.17v61.24
			C330.78,132.47,326.3,136.96,320.79,136.96z"/>
		<path class="st0" d="M445.1,153.63h-25.92v14.42h26.84V168c13.67-0.49,24.65-11.63,24.86-25.36h33.1v-14.42h-33.08V83.06h-14.42
			v45.17h-37.3v14.42h37.28C456.25,148.74,451.24,153.63,445.1,153.63z"/>
		<rect x="384.48" y="38.94" class="st0" width="25.79" height="14.42"/>
		<rect x="480.28" y="153.63" class="st0" width="23.94" height="14.42"/>
		<rect x="419.19" y="84.36" class="st0" width="23.94" height="14.42"/>
		<rect x="419.19" y="106.89" class="st0" width="23.94" height="14.42"/>
		<polygon class="st0" points="489.58,118.05 504,118.05 504,62.25 503.99,62.25 503.99,62.22 468.2,62.22 468.2,53.36 
			503.99,53.36 503.99,38.94 468.2,38.94 468.2,31.25 453.77,31.25 453.77,38.94 418.32,38.94 418.32,53.36 453.77,53.36 
			453.77,62.22 418.32,62.22 418.32,76.64 489.58,76.64 		"/>
		<rect x="384.48" y="62.22" class="st0" width="25.79" height="14.42"/>
	</g>
	<path class="st0" d="M121.91,41.89c-9.23,2.63-17.73,5.78-24.61,8.61V10.79h-0.04C96.85,4.83,91.95,0.12,85.91,0.01v0h-0.1
		C85.77,0,85.74,0,85.7,0s-0.07,0-0.11,0.01H74.1l0.01,10.78H74.1V68.5l0.04,6.93l0,0l0,0l11.35,6.15v0l0.17,0.09l5.48-2.87
		c0.17-0.09,16.96-8.82,37.15-14.59c3.26-0.93,6.46-1.77,9.51-2.52c3.77-0.93,10.47-3.41,10.47,7.38c0,10.78,0,50.8,0,57.81
		c0,8.77-7.3,10.47-7.3,10.47l-24.14,7.19c0,0-0.04,7.74-0.04,16.57c0,8.83,16.54,3.47,16.54,3.47l38.15-10.69V31.81l-13.35,2.03
		C157.43,33.95,140.74,36.51,121.91,41.89z"/>
	<path class="st0" d="M85.91,145.11L85.91,145.11l-54.47-12.46c0,0-8.23-1.17-8.23-11.34c0-8.95,0-45.86,0-54.61
		c0-8.51,6.44-6.33,6.44-6.33s9.67,2.28,15.07,3.83c3.47,1,6.95,2.13,10.33,3.36l0.05-15.96c0-9.14-6.5-10.42-7.74-10.75
		c-19.01-5.17-33.72-6.97-34.37-7.05L0,32.23V149l74.51,17.04v18.7h0c0,0,0,0.01,0,0.01c0,6.34,5.08,11.48,11.4,11.59v0.01h11.81
		v-11.6l0,0c0,0,0,0,0,0v-0.01l0,0v-36.93l-0.48-0.11L85.91,145.11z"/>
	<g>
		<polygon class="st0" points="187.4,41.75 188.86,41.75 188.86,32.84 187.3,32.84 187.3,39.39 178.33,32.34 176.88,32.34 
			176.88,42.16 178.45,42.16 178.45,34.72 		"/>
		<polygon class="st0" points="183.81,55.2 183.81,48.92 188.86,48.92 188.86,47.09 176.88,47.09 176.88,48.92 182.25,48.92 
			182.25,55.2 176.88,55.2 176.88,57.02 188.86,57.02 188.86,55.2 		"/>
		<path class="st0" d="M189.1,68.02c0-1.83-0.59-3.27-1.8-4.31c-1.14-1.01-2.62-1.49-4.45-1.49c-1.81,0-3.29,0.49-4.43,1.49
			c-1.17,1.04-1.78,2.48-1.78,4.31c0,1.81,0.59,3.26,1.76,4.31c1.14,1.01,2.62,1.51,4.44,1.51c1.85,0,3.34-0.5,4.46-1.51
			C188.51,71.27,189.1,69.83,189.1,68.02z M179.5,70.97c-0.82-0.69-1.24-1.68-1.24-2.95c0-1.28,0.43-2.27,1.28-2.97
			c0.82-0.67,1.93-1.01,3.32-1.01c1.41,0,2.52,0.34,3.34,1.01c0.88,0.71,1.29,1.69,1.29,2.97c0,1.28-0.4,2.27-1.24,2.95
			c-0.82,0.67-1.95,1.02-3.39,1.02C181.43,71.99,180.31,71.64,179.5,70.97z"/>
		<polygon class="st0" points="179.95,87.06 179.95,86.99 188.86,80.87 188.86,79.02 176.88,79.02 176.88,80.85 185.9,80.85 
			185.9,80.92 176.88,87.11 176.88,88.89 188.86,88.89 188.86,87.06 		"/>
		<path class="st0" d="M181.65,99.91v3.31h-2.6c-0.25-0.4-0.45-0.84-0.59-1.34c-0.13-0.52-0.22-1.07-0.22-1.66
			c0-1.49,0.42-2.6,1.26-3.31c0.77-0.67,1.88-0.99,3.32-0.99c1.48,0,2.64,0.35,3.47,1.09c0.8,0.69,1.19,1.61,1.19,2.77
			c0,0.94-0.2,1.71-0.62,2.28c-0.4,0.57-1.01,0.94-1.81,1.11v1.84c1.34-0.22,2.33-0.75,3.01-1.61c0.7-0.89,1.04-2.1,1.04-3.62
			c0-1.76-0.61-3.17-1.85-4.21c-1.16-0.99-2.63-1.48-4.43-1.48c-1.78,0-3.24,0.49-4.36,1.48c-1.21,1.06-1.81,2.53-1.81,4.45
			c0,1.04,0.13,2,0.4,2.87c0.27,0.82,0.64,1.54,1.12,2.16h5.03v-5.13H181.65z"/>
		<path class="st0" d="M188.86,114.95v-4.36h-11.98v4.33c0,1.93,0.54,3.39,1.61,4.4c1.04,0.96,2.5,1.44,4.38,1.44
			c1.9,0,3.36-0.47,4.36-1.41C188.33,118.33,188.86,116.87,188.86,114.95z M179.54,117.91c-0.72-0.71-1.09-1.83-1.09-3.34v-2.16
			h8.86v2.2c0,1.51-0.35,2.62-1.07,3.32c-0.7,0.67-1.81,1.02-3.36,1.02C181.36,118.95,180.26,118.6,179.54,117.91z"/>
		<path class="st0" d="M188.86,134.01h-7.45c-1.07,0-1.86-0.25-2.38-0.74c-0.52-0.5-0.79-1.29-0.79-2.36c0-1.09,0.27-1.88,0.79-2.38
			c0.52-0.5,1.31-0.74,2.38-0.74h7.45v-1.83h-7.42c-1.56,0-2.75,0.44-3.59,1.31c-0.8,0.84-1.21,2.05-1.21,3.64
			c0,1.58,0.42,2.78,1.23,3.64c0.82,0.85,2.01,1.29,3.57,1.29h7.42V134.01z"/>
	</g>
</g>
</svg>
