<!-- Generator: Adobe Illustrator 25.0.1, SVG Export Plug-In  -->
<svg version="1.1" xmlns="http://www.w3.org/2000/svg" xmlns:xlink="http://www.w3.org/1999/xlink" x="0px" y="0px"
	 width="947.82px" height="602.15px" viewBox="0 0 947.82 602.15"
	 style="overflow:visible;enable-background:new 0 0 947.82 602.15;" xml:space="preserve">
<style type="text/css">
	.st0{fill:url(#SVGID_1_);}
	.st1{fill:url(#SVGID_2_);}
</style>
<defs>
</defs>
<linearGradient id="SVGID_1_" gradientUnits="userSpaceOnUse" x1="65.377" y1="524.7875" x2="889.4351" y2="38.3275">
	<stop  offset="0.3288" style="stop-color:#BA8843"/>
	<stop  offset="0.5319" style="stop-color:#BA8D00"/>
	<stop  offset="0.7311" style="stop-color:#BA8843"/>
</linearGradient>
<path class="st0" d="M85.95,43.97c-1.88,2.26-4.94,3.18-10.58,3.57c-7.76,15.17-22.11,42.36-33.16,57.77
	c24.46,15.03,34.57,35.79,34.57,55.13c0.23,22.87-8.23,35.26-32.92,37.7c0-6.37-0.94-13.62-2.82-16.32
	c-1.88-1.99-6.11-3.35-11.29-4.16v-3.3l15.76-1.11c2.35-0.17,3.76-0.5,5.64-1.58c3.29-2.35,5.41-7.22,5.41-15.48
	c0-17.22-5.64-34.28-19.99-49.79c4.94-15.68,11.99-43.78,15.99-62.93l-26.1,1.83v189.44c0,1.42-6.59,7.54-16.93,8.27l-4,0.28V30.28
	l23.99,7.99l21.87-1.54l11.99-12.64L85.95,43.97z M194.13,90.63c0,0,15.29,10.49,24.22,18.12c-0.71,2.64-3.06,3.99-6.58,4.24
	l-138.51,9.73L71.37,116l80.66-5.66c5.41-17.37,11.29-41.61,13.4-54.02l31.28,8.18c-0.71,2.41-3.53,5.2-8.7,5.09
	c-6.35,10.12-18.81,27.04-31.28,40.41l24.46-1.72L194.13,90.63z M78.89,55.08l98.53-6.92l12.7-17.17c0,0,15.05,10.03,23.99,17.66
	c-0.71,2.64-3.06,3.99-6.11,4.2L80.78,61.79L78.89,55.08z M184.01,130.27l20.69,14.82c-1.64,2-4,3.58-8.93,4.64v71.48
	c0,1.18-7.29,5.7-17.64,6.43l-3.53,0.25v-15.81l-62.79,4.41v12.27c0,1.42-6.59,5.89-16.93,6.61l-3.53,0.25v-96.25l23.28,7.8
	l58.79-4.13L184.01,130.27z M97.94,62.71c49.86,20.56,28.22,60.3,10.11,44.35c-0.24-14.37-6.59-31.39-12.93-42.97L97.94,62.71z
	 M174.61,205.24V149.8l-62.79,4.41v55.44L174.61,205.24z M120.76,16.52c52.91,5.72,30.81,45.73,11.52,31.04
	c-0.47-10.58-7.05-22.62-13.64-29.47L120.76,16.52z M278.66,61.22c-0.71,2.2-3.03,3.79-6.77,4.05
	c-5.88,15.97-13.01,30.96-20.85,44.38l11.94,3.63c-0.71,1.84-2.32,3.02-5.53,3.79v99.42c-0.18,1.44-7.13,5.51-13.9,5.98l-3.03,0.21
	v-96.92c-6.77,9.24-14.08,17.8-21.75,24.95l-2.32-1.45c14.8-23.21,30.13-58.98,37.79-93.85L278.66,61.22z M366.89,137.46
	c0,0,11.59,8.48,18.54,14.79c-0.53,2-2.32,3.02-4.81,3.2l-49.73,3.49v50.78c0,2.15-7.13,6.76-13.72,7.22l-3.21,0.23v-57.04
	l-47.59,3.34l-1.43-5.09l49.02-3.44v-34.69l-43.32,3.04l-1.43-5.09l44.74-3.14V52.66l23.53,0.67c-0.53,2.72-1.78,4.6-6.6,5.65v54.9
	l22.46-1.58l9.98-13.22c0,0,11.05,7.99,17.65,13.6c-0.53,2-2.32,3.02-4.63,3.19l-45.45,3.19v34.69l25.67-1.8L366.89,137.46z
	 M278.12,67.34c40.11,19,24.24,49.8,10.16,37.37c-0.89-12.1-7.13-26.14-12.12-36.34L278.12,67.34z M377.41,67.34
	c-0.71,2.02-3.03,3.61-6.95,3.53c-8.2,11.84-18.36,24.18-27.45,32.86l-2.49-1.43c4.46-10.51,9.98-27.52,14.08-42.65L377.41,67.34z
	 M488.86,182.56c-8.45,13.17-25.36,40.39-46.36,68.77c-1.75,5.68-5.25,9.73-8.16,11.98l-19.24-29.36
	c11.37-7.23,13.12-9.7,13.12-15.25V101.71l-36.15,2.54l-2.62-8.3l39.07-2.74l12.83-13.77l24.2,18.48
	c-1.46,2.15-4.96,4.74-11.37,6.36v102.95c10.2-8.61,20.99-17.85,32.07-27.4L488.86,182.56z M412.47,14.79
	c72.3,13.93,51.89,66.26,26.24,50.8c-4.08-16.68-18.07-36.17-29.15-48.55L412.47,14.79z M641.04,93.2c0,0,17.78,12.79,28.28,22.29
	c-0.87,3.28-3.79,4.95-7.87,5.23l-97.09,6.82c-6.12,13.88-12.83,26.35-19.83,38.24l2.63,0.99l61.52-4.32l13.41-15.56l28.28,19.95
	c-2.04,2.48-6.41,5.13-12.24,6.71v82.18c-0.29,2.36-13.41,8.84-22.16,9.45l-4.37,0.31v-21.06l-68.22,4.79v14.92
	c0,2.05-8.45,9.08-21.58,10l-4.95,0.35v-69.9c-15.45,18.05-32.36,32.98-51.31,45.72l-3.21-2.99c28.28-28.6,54.23-69.61,72.01-117.66
	l-61.22,4.3l-2.34-8.32l66.76-4.69c4.96-14.39,9.33-29.9,12.83-45.65l38.49,10.75c-1.46,3.61-4.96,6.49-11.37,6.65
	c-2.92,9.27-6.12,17.69-9.62,26.12l57.73-4.05L641.04,93.2z M475.45,52.48l42.56-2.99V6.2L553,6.96c-0.58,3.55-2.91,6.35-9.62,7.99
	v32.76l47.23-3.32V1.11l34.99,0.76c-0.58,3.55-2.92,6.35-9.62,7.99v32.76l11.66-0.82l13.41-20.25c0,0,15.74,12.64,24.78,21.36
	c-0.88,3.28-3.5,4.93-7.58,5.21l-42.28,2.97v29.54c0,2.63-11.66,8.72-21.28,9.39l-4.08,0.29V52.87l-47.23,3.32v30.12
	c0,2.63-11.66,9.01-21.28,9.68l-4.08,0.29V57.97l-40.23,2.83L475.45,52.48z M543.38,175.52v65.22l68.22-4.79v-65.22L543.38,175.52z
	 M827.42,182.16c24.71,31.99,75.57,43.99,120.4,44.01l-0.29,4.06c-13.79,7.6-22.7,17.74-24.14,30.23
	c-44.25-9.29-81.89-35.76-103.16-77.51c-15.52,41.16-52.59,74.61-142.53,95.91l-1.72-3.63c69.54-23.62,99.71-54.85,112.07-90.31
	l-104.31,7.33l-2.58-8.18l109.77-7.71c2.3-9.1,4.02-18.16,4.89-27.44c-3.16,0.8-6.03,1.87-9.2,2.66l-2.3-4.16
	c56.32-24.42,93.1-56.7,116.38-105.32l-69.83,4.9c-3.45,4.85-7.47,10.04-11.49,14.64c58.04,5.72,37.36,50.99,15.23,36.12
	c-1.43-11.43-9.77-24.1-18.96-31.53c-9.77,11.06-20.4,21.61-31.03,29.85l-3.16-2.66C799.84,70.23,818.51,30.3,827.13,0l38.51,3.93
	c-0.86,3.23-3.16,4.83-10.63,5.36c-5.17,9.3-10.92,18.93-17.82,28.92l65.52-4.6L916.5,18.8l27.01,20.3
	c-2.01,2.74-6.32,4.19-12.64,4.92c-26.44,49.42-64.08,82.33-131.61,103.79l38.51,3.35c-0.86,4.1-4.6,6.66-10.92,7.4
	c-0.86,5.25-2.3,10.54-3.74,15.54l72.7-5.11l17.82-22.87c0,0,19.83,13.31,32.18,23.11c-0.86,3.23-3.74,4.87-8.05,5.18L827.42,182.16
	z M749.26,100.6c-13.79,12.5-29.89,26.31-49.71,40.97c-0.58,3.5-2.59,7.1-5.75,8.48l-12.93-29.36
	c14.94-5.66,41.95-17.65,68.39-31.32V6.62l37.07,1.14c-0.29,4.06-2.87,7.12-10.35,8.8v135.77c0,2.59-11.78,8.61-21.84,9.32
	l-4.88,0.34V100.6z M694.67,28.04c68.68,14.2,46.55,65.63,22.41,48.58c-2.01-16.29-14.37-35.02-25.29-46.65L694.67,28.04z
	 M122.09,564.6c11.33,0.86,24.09,0.44,38.96-0.6c13.7-0.96,45.81-3.22,61.16-4.77v3.08c-7.79,2.21-11.57,10.29-12.04,19.09
	l-50.3,3.53c-54.31,3.81-83.6-4.79-101.07-51.42c-10.86,25.64-28.34,50.32-56.44,68.64L0,599.71
	c30.46-30.33,43.69-75.56,47.94-111.87l31.64,3.94c-0.71,3.37-3.54,5.7-8.97,6.08c-2.36,9.88-5.43,20.04-9.21,29.79
	c9.21,18.31,21.25,28.36,38.02,33.1V466.7l30.23,0.72c-0.47,3.35-2.12,5.6-7.56,6.69v29.85l38.96-2.74l13.93-18.51
	c0,0,16.29,10.94,25.98,18.79c-0.47,2.64-3.07,4.01-6.61,4.25l-72.26,5.07V564.6z M98.95,457.49v-38.14l-70.37,4.94l-1.89-6.74
	l72.26-5.07v-36.96l31.17,0.65c-0.47,3.35-2.36,5.85-8.5,7.23v27.48l38.73-2.72l13.7-18.02c0,0,15.82,10.5,25.51,18.35
	c-0.71,2.66-3.07,4.01-6.61,4.25l-71.32,5.01v38.14l58.09-4.08l14.17-18.53c0,0,16.06,10.95,25.98,18.79
	c-0.71,2.66-3.31,4.02-6.61,4.25L6.14,470.88l-2.12-6.72L98.95,457.49z M282.33,511.29c17.01,17.27,38.02,20.22,77.64,17.43
	c21.61-1.52,39.42-2.97,61.83-5.75v2.61c-8,2.37-12.41,8.9-13.21,17.39l-54.43,3.82c-39.42,2.77-57.63-4.99-75.04-28.86
	c-2.6-3.43-4.6-2.89-6.8,0.48c-4.4,6.93-16.41,23.43-23.41,34.77c0.6,1.97,0,3.81-1.8,5.14l-14.41-19.87
	c9.2-6.27,21.81-16.79,31.22-23.47v-68.05l-28.41,2l-1.2-5.74l26.61-1.87l9.8-13.54l21.01,15.79c-1.6,1.72-4.4,3.52-10.2,4.73v62.23
	L282.33,511.29z M247.12,376.45c54.63,15.84,39.82,54.42,21.21,42.47c-3.2-13.83-14.61-30.29-23.41-40.91L247.12,376.45z
	 M294.14,413.7l72.44-5.09v-42.96l25.61,0.81c-0.4,2.84-2.4,4.79-7.2,5.93v34.93l8.6-0.6l10.21-17.58c0,0,11.81,11.02,18.01,18.21
	c-0.6,2.25-2.4,3.38-5.2,3.58l-31.62,2.22v82.31c0,13.65-3.2,21.91-27.62,25.83c-0.8-5.77-2.2-10.08-5.4-12.47
	c-3.6-2.76-9.21-4.57-20.41-5.39v-3.01c0,0,25.01,0.05,30.02-0.3c3.8-0.27,5-1.56,5-4.57v-81.1l-70.84,4.97L294.14,413.7z
	 M309.15,433.32c52.63,16.98,32.62,58.33,17.21,43.16c-2.4-11.68-7.8-29.76-19.01-41.42L309.15,433.32z M550.3,436.92
	c-3.1,14.57-8.26,27.66-15.49,39.26c32.01,21.13,26.55,41.19,13.13,35.03c-4.57-7.67-12.1-16.17-21.09-24.56
	c-11.65,13.84-27.73,24.88-49.41,33.66c11.21,5.28,25.66,5.89,47.5,4.36c16.37-1.15,30.09-2.26,46.91-4.33v1.78
	c-6.05,1.76-9.44,6.73-9.88,12.83l-41.45,2.91c-29.5,2.07-43.22-3.33-56.05-20.33c-1.92-2.53-3.54-2.12-5.02,0.5
	c-2.95,5.09-10.62,16.28-15.34,24.6c0.44,1.3,0,2.52-1.18,3.49l-10.62-14.35c6.05-4.12,14.16-11.06,20.5-15.79v-51.2l-19.47,1.37
	l-0.88-4.23l18.14-1.27l7.23-9.98l15.49,11.49c-1.18,1.41-3.39,2.61-7.52,3.64v46.17l0.89,0.68c3.1,2.89,6.34,5.33,9.73,7.16
	l-0.59-1.14c19.47-10.84,33.63-23.82,43.36-38.85c-10.62-9.02-22.12-17.09-32.15-23.04l1.62-1.59c14.6,4.75,26.4,9.84,35.84,14.94
	c5.02-9.97,8.26-20.7,10.18-32.08l-55.75,3.92l-1.18-4.21l68.29-4.8l8.55-11.11c0,0,9.29,6.6,15.34,11.35
	c-0.44,1.66-2.07,2.51-4.13,2.66L550.3,436.92z M441.45,412.46c40.56,11.65,29.94,40.36,16.08,31.28
	c-2.66-10.02-11.06-22.16-17.7-30.13L441.45,412.46z M506.05,406.29c37.02,4.65,24.78,32.74,11.36,23.77
	c-1.03-8.07-7.08-17.26-12.68-22.64L506.05,406.29z M580.1,472.53c3.25-0.52,7.82-1.44,13.13-2.4v-51.35l16.82,0.45
	c-0.3,1.8-1.48,3.06-4.57,3.72v44.69l12.98-2.84v-65.99l18.44,0.48c-0.3,2.09-1.48,3.65-5.31,4.52v25.75l5.16-0.36l6.93-10.25
	c0,0,7.82,6.41,12.39,10.82c-0.44,1.66-1.92,2.5-3.98,2.65l-20.5,1.44v28.11l22.86-5.01l0.3,2.2
	c-14.31,6.18-34.66,14.27-63.87,24.76c-0.74,1.83-2.21,3.11-3.69,3.66L580.1,472.53z M700.17,509.96c0,0,9.73,6.86,15.49,11.79
	c-0.44,1.66-1.92,2.5-3.84,2.64l-125.97,8.85l-1.33-4.2l106.94-7.51L700.17,509.96z M602.96,491.64l74.93-5.26l8.26-11.09
	c0,0,9.14,6.61,14.9,11.24c-0.44,1.66-1.92,2.5-3.98,2.65l-92.93,6.53L602.96,491.64z M712.56,454.64c4.13,1.34,5.16,2.74,5.16,5.41
	c0,5.92-5.75,8.69-28.76,10.31l-14.9,1.05c-13.27,0.93-16.37-1.66-16.37-11.58v-63.78l18.14,0.65c-0.15,1.79-1.48,3.36-4.72,4.03
	v28.26c10.77-6.23,21.68-14.4,27.58-20.58l14.9,10.05c-1.33,1.57-3.69,1.89-7.67,1.13c-8.55,4.45-21.68,9.96-34.81,13.54v22.49
	c0,2.52,0.88,3.19,5.9,2.84l12.98-0.91c5.16-0.36,9.73-0.68,11.5-0.96c1.77-0.27,2.66-0.78,3.54-2.02c1.33-2.31,3.39-9.71,5.46-17.4
	l1.77-0.12L712.56,454.64z M910.02,507.75c0,0,15.8,10.89,25.5,18.36c-0.68,2.54-3.16,3.84-6.32,4.07l-74.47,5.23v52.07
	c0,1.58-7.22,6.85-19.18,7.69l-4.06,0.29v-58.4l-103.58,7.27l-2.03-6.42l39.04-2.74v-70.18l25.5,7.94l41.07-2.88v-43.24l-46.03,3.23
	c-16.92,24.28-36.78,43.78-57.77,57.93l-2.71-2.07c20.76-23.19,43.1-61.43,56.19-100.38l31.37,10.02c-1.13,2.8-4.06,4.81-9.25,4.72
	c-4.06,7.98-8.58,15.54-13.31,22.89l99.74-7l13.77-18.4c0,0,15.34,10.24,25.05,18.61c-0.45,2.52-2.71,3.81-5.87,4.03l-67.92,4.77
	v43.24l30.01-2.11l12.64-16.96c0,0,14.89,10.05,23.92,17.34c-0.45,2.52-2.93,3.83-6.09,4.05l-60.48,4.25v53.88l41.29-2.9
	L910.02,507.75z M831.49,530.46v-53.88l-44,3.09v53.88L831.49,530.46z"/>
</svg>
