<!-- Generator: Adobe Illustrator 25.0.1, SVG Export Plug-In  -->
<svg version="1.1" xmlns="http://www.w3.org/2000/svg" xmlns:xlink="http://www.w3.org/1999/xlink" x="0px" y="0px"
	 width="363.82px" height="106.55px" viewBox="0 0 363.82 106.55"
	 style="overflow:visible;enable-background:new 0 0 363.82 106.55;" xml:space="preserve">
<style type="text/css">
	.st0{fill:#BA8843;}
</style>
<defs>
</defs>
<g>
	<rect x="1.31" y="36.09" class="st0" width="31.91" height="4.16"/>
	<path class="st0" d="M31.31,6.52l1.91-3.77h-4.89l-0.18,0.4c-0.25,0.48-0.74,0.78-1.28,0.78L1.32,3.92v4.16l27.41,0.01
		C29.82,8.09,30.82,7.48,31.31,6.52z"/>
	<path class="st0" d="M28.15,19.52c-0.25,0.48-0.74,0.78-1.28,0.78L2.76,20.3v4.16l25.96,0.01c1.09,0,2.08-0.61,2.58-1.58l1.91-3.77
		h-4.89L28.15,19.52z"/>
</g>
<g>
	<path class="st0" d="M30.29,94.51c-1.24-0.85-2.93-0.6-3.88,0.57L25,96.81l9.48,7.68l0-6.78L30.29,94.51z"/>
	<path class="st0" d="M34.53,76.9v-4.16H15.19v4.16h6.74v5.42h-6.74v4.16h6.74v3.1c0,0.45-0.26,1.1-0.56,1.51l-5.24,5.96
		c0,0,0,7.72,0,7.72c0,0.01,9.63-10.89,9.63-10.89c0.69-0.68,1.14-1.76,1.14-2.66c0-1.49,0-3.12,0-4.75h7.63v-4.16H26.9
		c0-2.12,0-4.04,0-5.42H34.53z"/>
	<path class="st0" d="M6.42,72.28l5.59,0c1.09,0,2.08-0.61,2.58-1.58l1.91-3.77H11.6l-0.18,0.4c-0.25,0.48-0.74,0.78-1.28,0.78
		l-9.98-0.01v4.16l1.29,0V96.6H0v4.16h1.45h4.97h2.84v4.02h4.97c0-2.34,0-4.82,0-7.31V96.6l0,0c0-1.7,0-3.41,0-5.08h0v-4.16h0
		c0-1.8,0-3.51,0-5.09h0V78.1h0c0-3.07,0-5,0-5H9.25v5H6.42C6.42,75.25,6.42,73.13,6.42,72.28z M9.25,96.6H6.42
		c0-1.68,0-3.39,0-5.08h2.84V96.6z M9.25,82.27v5.09H6.42c0-1.77,0-3.49,0-5.09H9.25z"/>
	<path class="st0" d="M18.8,70.23l0.07,1.69h3.23c0-0.16-0.02-1.88-0.02-3.01c0-1.43-1.16-2.59-2.59-2.59l-1.76,0v3.28h0.44
		C18.52,69.6,18.8,69.89,18.8,70.23z"/>
	<path class="st0" d="M30.35,70.23c0-0.35,0.28-0.63,0.63-0.63h0.44v-3.28l-1.76,0c-1.43,0-2.59,1.16-2.59,2.59
		c0,1.13-0.02,2.85-0.02,3.01h3.23L30.35,70.23z"/>
</g>
<g>
	<path class="st0" d="M234.11,46.25l-0.98,1.92c-0.68,1.33-2.05,2.17-3.55,2.17h-19.29l11.86-11.86c2.36-2.36,3.01-5.93,1.64-8.97
		l-2.85-6.33h-46.56v11.5h35.3l-15.67,15.67h-38.67v11.5l39,0v22.23c0,4.42-3.59,8-8.01,8c-1.81,0-2.88,0-2.88,0l-4,13.72h20.61
		c4.42,0,8-3.58,8-8l0-35.95l26.65,0c3,0,5.75-1.68,7.12-4.35l5.77-11.23H234.11z"/>
	<path class="st0" d="M169.77,5.33h-13.72v27.55h5.69c4.43,0,8.02-3.59,8.02-8.02V5.33z"/>
	<path class="st0" d="M209.1,5.33V0h-17.59v5.33h-9.19c-2.08,0-4.15,0.4-6.08,1.19l-3.8,1.55v11.5l3.79-1.55
		c1.93-0.79,4-1.19,6.08-1.19h46.57v8.05c0,4.42,3.58,8,8,8h5.72V5.33H209.1z"/>
</g>
<g>
	<path class="st0" d="M292.88,2.19c-0.68,1.33-2.05,2.17-3.55,2.17l-34.57-0.02v11.5l39.71,0.02c3,0,5.75-1.68,7.12-4.35l5.27-10.42
		h-13.5L292.88,2.19z"/>
	<path class="st0" d="M343.79,3.66h-13.72l0.05,80.4c0,4.42-3.59,8-8.01,8c-1.81,0-2.88,0-2.88,0l-4,13.72h20.61c4.42,0,8-3.58,8-8
		L343.79,3.66z"/>
	<path class="st0" d="M284.73,50.88c0-18.13,0-32.34,0-32.34h-13.72l0,32.34h-16.25v11.5h16.25v43.41h5.71c4.42,0,8.01-3.58,8.01-8
		c0-10.78,0-23.42,0-35.4L284.73,50.88z"/>
	<rect x="287.42" y="50.88" class="st0" width="14.31" height="11.5"/>
	<path class="st0" d="M322.68,9.54h-13.72v73.62h5.69c4.43,0,8.02-3.59,8.02-8.02C322.68,47.93,322.68,9.54,322.68,9.54z"/>
</g>
<g>
	<path class="st0" d="M118.14,3.66c0-1.88,0-3.19,0-3.33h-10.11l-0.06,14.35c0,1.07-0.87,1.94-1.94,1.94l-0.78,0v10.17h4.88
		c4.43,0,8.01-3.59,8.01-8.01c0-0.77,0-2.06,0-3.61h27.35V3.66H118.14z"/>
	<path class="st0" d="M85.81,17.83c0-9.46,0-16.5,0-16.5H72.1v16.5H55.09v11.5H72.1v16.5h13.72c0-5.25,0-10.97,0-16.5L85.81,17.83z"
		/>
	<rect x="88.5" y="17.83" class="st0" width="14.08" height="11.5"/>
	<path class="st0" d="M68.82,38.85c0-3.13,0.01-7.48,0.01-7.48h-8.88l-0.19,3.82c0,0.96-0.78,1.73-1.73,1.73h-1.2v9.06l4.86,0
		C65.62,45.99,68.82,42.79,68.82,38.85z"/>
	<path class="st0" d="M59.85,11.13l0.19,4.66h8.91c0-0.44-0.04-5.19-0.04-8.32c0-3.95-3.2-7.14-7.14-7.14l-4.86,0v9.06h1.2
		C59.08,9.39,59.85,10.17,59.85,11.13z"/>
	<path class="st0" d="M101.25,45.99v-9.06h-1.2c-0.96,0-1.73-0.78-1.73-1.73l-0.19-3.82h-8.85c0,0-0.02,4.35-0.02,7.48
		c0,3.95,3.2,7.14,7.14,7.14L101.25,45.99z"/>
	<path class="st0" d="M98.22,11.13c0-0.96,0.78-1.73,1.73-1.73h1.2V0.33l-4.86,0c-3.95,0-7.14,3.2-7.14,7.14
		c0,3.13-0.04,7.88-0.04,8.32h8.91L98.22,11.13z"/>
	<g>
		<path class="st0" d="M135.86,82.82l2.52-1.91c1.99-1.51,3.16-3.85,3.16-6.35c0-18.64,0-55.99,0-56.69c0-0.01-0.01-0.01-0.02-0.01
			h-13.68c-0.01,0-0.02,0.01-0.02,0.02V70c0,1.24-0.57,2.41-1.55,3.18l-1.34,1.05l-2.01-1.58c-0.96-0.75-1.52-1.9-1.52-3.12
			c0-14.24,0-37.28,0-37.28h-13.72l0.03,42.31c0,2.47,1.16,4.8,3.12,6.3l2.86,2.18l0,0l10.9,8.31l0,0l0,0l19.92,15.19l0.1-16.86
			L135.86,82.82z"/>
		<path class="st0" d="M111.85,84.5l-7.3,5.72c0,0-0.01,0.01-0.01,0.01l-0.01,16.3c0,0.01,0.02,0.02,0.03,0.01l18.12-13.74
			L111.85,84.5z"/>
	</g>
	<g>
		<polygon class="st0" points="56.09,106.55 77.03,92.03 65.26,83.73 56.09,90.07 		"/>
		<path class="st0" d="M102.58,55.66h-4.62c0-3.6,0-5.73,0-5.73H84.24v5.73H73.67c0-3.59,0-5.73,0-5.73H59.95l0.01,5.73h-4.87v11.5
			h4.89l0.01,6.21c0,2.62,1.29,5.06,3.43,6.56l3.66,2.54l11.85,8.24l22.78,15.83l0.11-16.36l-11.05-7.68l3.75-2.6
			c2.16-1.49,3.44-3.95,3.44-6.58c0-2.15,0-4.21,0-6.16h4.62V55.66z M84.24,68.98c0,1.02-0.5,1.97-1.34,2.55l-3.97,2.75l-3.97-2.76
			c-0.81-0.56-1.29-1.49-1.29-2.48c0-0.64,0-1.26,0-1.88h10.58V68.98z"/>
	</g>
</g>
<g>
	<path class="st0" d="M363.69,10.08h-7.93V8.86l0.53-0.07V8.77c-0.42-0.48-0.63-1.13-0.63-1.96c0-0.73,0.23-1.34,0.7-1.83
		c0.54-0.57,1.28-0.85,2.24-0.85c0.93,0,1.68,0.26,2.26,0.77c0.54,0.49,0.82,1.08,0.82,1.78c-0.01,0.89-0.2,1.54-0.56,1.96v0.02
		h2.58V10.08z M356.5,7.08c0,0.52,0.14,0.92,0.41,1.19c0.2,0.2,0.43,0.32,0.71,0.36c0.68,0.07,1.37,0.07,2.08,0
		c0.29-0.03,0.56-0.16,0.78-0.39c0.26-0.26,0.4-0.62,0.4-1.07c0-0.46-0.21-0.85-0.62-1.16c-0.42-0.32-0.95-0.47-1.58-0.47
		c-0.6,0-1.1,0.14-1.52,0.42C356.73,6.26,356.51,6.63,356.5,7.08z"/>
	<path class="st0" d="M361.58,14.18h-5.83v-1.42h5.83V14.18z M362.22,12.76h1.39v1.4h-1.39V12.76z"/>
	<path class="st0" d="M361.51,22.1h-5.57c-0.82,0-1.41-0.23-1.79-0.7c-0.37-0.46-0.55-1.17-0.55-2.14c0-0.51,0.11-1,0.34-1.49
		c0.24-0.51,0.56-0.92,0.97-1.24l0.76,0.76c-0.84,0.5-1.27,1.16-1.3,1.99c0,0.43,0.12,0.78,0.38,1.05c0.26,0.28,0.6,0.42,1.01,0.42
		h0.78v-0.02c-0.4-0.36-0.61-0.96-0.61-1.8c0-0.73,0.26-1.32,0.78-1.79c0.54-0.48,1.24-0.72,2.1-0.72c0.83,0,1.52,0.24,2.05,0.72
		c0.53,0.47,0.79,1.07,0.79,1.8c-0.03,0.85-0.24,1.45-0.63,1.79v0.02l0.47,0.12V22.1z M359.85,20.64c0.27-0.04,0.49-0.17,0.65-0.39
		c0.23-0.25,0.34-0.58,0.34-0.99c-0.01-0.41-0.21-0.75-0.6-1.03c-0.38-0.28-0.85-0.43-1.41-0.44c-0.6,0-1.11,0.14-1.51,0.43
		c-0.4,0.28-0.6,0.62-0.6,1.04c0.01,0.47,0.15,0.83,0.4,1.07c0.17,0.17,0.43,0.28,0.79,0.33C358.55,20.71,359.2,20.71,359.85,20.64z
		"/>
	<path class="st0" d="M361.58,26.19h-5.83v-1.42h5.83V26.19z M362.22,24.78h1.39v1.4h-1.39V24.78z"/>
	<path class="st0" d="M361.33,32.22h-0.73v-1.4h-3.28c-0.36,0-0.6,0.11-0.72,0.33c-0.12,0.23-0.12,0.58,0,1.07h-0.81
		c-0.18-1.01-0.17-1.72,0.03-2.14c0.21-0.45,0.68-0.67,1.41-0.67h3.35v-1.15h0.73v1.15l1.85,0.63v0.78h-1.85V32.22z"/>
	<path class="st0" d="M361.53,39.8h-5.74v-1.1l0.68-0.12c-0.26-0.19-0.47-0.45-0.62-0.77c-0.14-0.31-0.21-0.64-0.21-1
		c0-0.83,0.28-1.5,0.83-2.01c0.54-0.49,1.24-0.74,2.1-0.74c0.93,0,1.68,0.27,2.25,0.81c0.55,0.51,0.83,1.17,0.83,1.96
		c0,0.68-0.18,1.24-0.53,1.69l0.41,0.1V39.8z M358.65,35.49c-0.62,0-1.13,0.14-1.54,0.43c-0.42,0.29-0.63,0.65-0.63,1.08
		c0,0.42,0.12,0.77,0.38,1.06c0.2,0.25,0.45,0.38,0.74,0.4c0.75,0,1.5,0,2.25,0c0.26-0.01,0.5-0.15,0.72-0.42
		c0.18-0.23,0.26-0.56,0.26-1c0-0.43-0.21-0.79-0.64-1.09C359.76,35.64,359.25,35.49,358.65,35.49z"/>
	<path class="st0" d="M356.56,45.08h-0.76c-0.27-1.06-0.12-1.81,0.44-2.25c0.31-0.24,0.75-0.36,1.31-0.36h6.15v1.42h-6
		c-0.58,0-0.95,0.11-1.11,0.32C356.45,44.38,356.45,44.67,356.56,45.08z"/>
	<path class="st0" d="M356.56,53.81h-0.76c-0.27-1.06-0.12-1.81,0.44-2.25c0.31-0.24,0.75-0.36,1.31-0.36h6.15v1.42h-6
		c-0.58,0-0.95,0.11-1.11,0.32C356.45,53.12,356.45,53.41,356.56,53.81z"/>
	<path class="st0" d="M361.58,57.49h-5.83v-1.42h5.83V57.49z M362.22,56.07h1.39v1.4h-1.39V56.07z"/>
	<path class="st0" d="M360.55,59.62h0.75v1.09h0.92c1.38,0,1.88,0.95,1.48,2.84l-0.88-0.11c0.19-0.4,0.22-0.72,0.09-0.96
		c-0.12-0.24-0.38-0.35-0.76-0.35h-0.84v1.27h-0.75v-1.27h-4.79v-1.41h4.79V59.62z"/>
	<path class="st0" d="M358.42,71.38v-4.71c-0.57,0-1.04,0.16-1.41,0.47c-0.39,0.32-0.58,0.75-0.57,1.27c0,0.44,0.12,0.81,0.35,1.1
		c0.22,0.27,0.51,0.44,0.86,0.51l-0.15,1.26c-0.55-0.16-0.99-0.5-1.32-1.03c-0.33-0.53-0.5-1.16-0.5-1.9c0-0.88,0.3-1.63,0.92-2.24
		c0.59-0.59,1.28-0.88,2.06-0.88c0.84,0,1.55,0.3,2.13,0.91c0.58,0.6,0.87,1.34,0.87,2.22c0,0.87-0.28,1.58-0.83,2.14
		C360.23,71.09,359.43,71.38,358.42,71.38z M359.16,66.67v3.34c0.47-0.04,0.86-0.21,1.18-0.51c0.33-0.31,0.5-0.69,0.5-1.15
		c0-0.49-0.17-0.89-0.51-1.2C360.01,66.86,359.62,66.7,359.16,66.67z"/>
	<path class="st0" d="M355.76,78.47l4.79-1.14v-0.02l-4.79-1.08v-1.49l5.89-1.83v1.5l-4.73,1.15v0.02l4.37,1.07v1.39l-4.37,1.1v0.02
		l4.73,1.15v1.46l-5.89-1.82V78.47z"/>
	<path class="st0" d="M358.42,89.41V84.7c-0.57,0-1.04,0.16-1.41,0.47c-0.39,0.32-0.58,0.75-0.57,1.27c0,0.44,0.12,0.81,0.35,1.1
		c0.22,0.27,0.51,0.44,0.86,0.51l-0.15,1.26c-0.55-0.16-0.99-0.5-1.32-1.03c-0.33-0.53-0.5-1.16-0.5-1.9c0-0.88,0.3-1.63,0.92-2.24
		c0.59-0.59,1.28-0.88,2.06-0.88c0.84,0,1.55,0.3,2.13,0.91c0.58,0.6,0.87,1.34,0.87,2.22c0,0.87-0.28,1.58-0.83,2.14
		C360.23,89.13,359.43,89.42,358.42,89.41z M359.16,84.7v3.34c0.47-0.04,0.86-0.21,1.18-0.51c0.33-0.31,0.5-0.69,0.5-1.15
		c0-0.49-0.17-0.89-0.51-1.2C360.01,84.9,359.62,84.74,359.16,84.7z"/>
	<path class="st0" d="M358.42,97.38v-4.71c-0.57,0-1.04,0.16-1.41,0.47c-0.39,0.32-0.58,0.75-0.57,1.27c0,0.44,0.12,0.81,0.35,1.1
		c0.22,0.27,0.51,0.44,0.86,0.51l-0.15,1.26c-0.55-0.16-0.99-0.5-1.32-1.03c-0.33-0.53-0.5-1.16-0.5-1.9c0-0.88,0.3-1.63,0.92-2.24
		c0.59-0.59,1.28-0.88,2.06-0.88c0.84,0,1.55,0.3,2.13,0.91c0.58,0.6,0.87,1.34,0.87,2.22c0,0.87-0.28,1.58-0.83,2.14
		C360.23,97.09,359.43,97.39,358.42,97.38z M359.16,92.67v3.34c0.47-0.04,0.86-0.21,1.18-0.51c0.33-0.31,0.5-0.69,0.5-1.15
		c0-0.49-0.17-0.89-0.51-1.2C360.01,92.87,359.62,92.7,359.16,92.67z"/>
	<path class="st0" d="M355.76,103.51l3.09-1.61l-0.78-0.84h-2.31v-1.43h7.93v1.43h-4.36l2.24,2.14v1.75l-2.13-2.38l-3.68,2.59
		V103.51z"/>
</g>
</svg>
